# xmcd CD database file
#
# Track frame offsets:
#	150
#	19471
#	38778
#	54770
#	70539
#	90511
#	104318
#	122549
#	143349
#	160816
#	179786
#	195268
#
# Disc length: 2919 seconds
#
# Revision: 28
# Processed by: cddbd v1.5.2PL0 Copyright (c) Steve Scherf et al.
# Submitted via: CDex 1.97
#
DISCID=900b650c
DTITLE=Anastacia - Anastacia
DYEAR=2004
DGENRE=Pop/Rock
TTITLE0=Seasons (Album Version)
TTITLE1=Left Outside Alone (Album Version)
TTITLE2=Time (Album Version)
TTITLE3=Sick and Tired (Album Version)
TTITLE4=Heavy On My Heart (Album Version)
TTITLE5=I Do (featuring Sonny of P.O.D.) (Album Version)
TTITLE6=Welcome To My Truth (Album Version)
TTITLE7=Pretty Little Dum Dum (Album Version)
TTITLE8=Sexy Single (Album Version)
TTITLE9=Rearview (Album Version)
TTITLE10=Where Do I Belong (Album Version)
TTITLE11=Maybe Today (Album Version)
EXTD=YEAR: 2004
EXTT0=
EXTT1=
EXTT2=
EXTT3=
EXTT4=
EXTT5=
EXTT6=
EXTT7=
EXTT8=
EXTT9=
EXTT10=
EXTT11=
PLAYORDER=
